<svg id="visual" viewBox="0 0 900 600" width="900" height="600" xmlns="http://www.w3.org/2000/svg" xmlns:xlink="http://www.w3.org/1999/xlink" version="1.1"><rect x="0" y="0" width="900" height="600" fill="#ff0066"></rect><path d="M0 270L21.5 269.5C43 269 86 268 128.8 271.5C171.7 275 214.3 283 257.2 286.3C300 289.7 343 288.3 385.8 286.2C428.7 284 471.3 281 514.2 278.2C557 275.3 600 272.7 642.8 274.8C685.7 277 728.3 284 771.2 283.7C814 283.3 857 275.7 878.5 271.8L900 268L900 0L878.5 0C857 0 814 0 771.2 0C728.3 0 685.7 0 642.8 0C600 0 557 0 514.2 0C471.3 0 428.7 0 385.8 0C343 0 300 0 257.2 0C214.3 0 171.7 0 128.8 0C86 0 43 0 21.5 0L0 0Z" fill="#ff0066"></path><path d="M0 243L21.5 243.2C43 243.3 86 243.7 128.8 239.8C171.7 236 214.3 228 257.2 227.8C300 227.7 343 235.3 385.8 233.3C428.7 231.3 471.3 219.7 514.2 219.3C557 219 600 230 642.8 233C685.7 236 728.3 231 771.2 231.2C814 231.3 857 236.7 878.5 239.3L900 242L900 0L878.5 0C857 0 814 0 771.2 0C728.3 0 685.7 0 642.8 0C600 0 557 0 514.2 0C471.3 0 428.7 0 385.8 0C343 0 300 0 257.2 0C214.3 0 171.7 0 128.8 0C86 0 43 0 21.5 0L0 0Z" fill="#f6325f"></path><path d="M0 171L21.5 169.2C43 167.3 86 163.7 128.8 164.2C171.7 164.7 214.3 169.3 257.2 172.2C300 175 343 176 385.8 174.7C428.7 173.3 471.3 169.7 514.2 170C557 170.3 600 174.7 642.8 173C685.7 171.3 728.3 163.7 771.2 161C814 158.3 857 160.7 878.5 161.8L900 163L900 0L878.5 0C857 0 814 0 771.2 0C728.3 0 685.7 0 642.8 0C600 0 557 0 514.2 0C471.3 0 428.7 0 385.8 0C343 0 300 0 257.2 0C214.3 0 171.7 0 128.8 0C86 0 43 0 21.5 0L0 0Z" fill="#ec475a"></path><path d="M0 113L21.5 110.7C43 108.3 86 103.7 128.8 105C171.7 106.3 214.3 113.7 257.2 118C300 122.3 343 123.7 385.8 123C428.7 122.3 471.3 119.7 514.2 117.7C557 115.7 600 114.3 642.8 113.3C685.7 112.3 728.3 111.7 771.2 114C814 116.3 857 121.7 878.5 124.3L900 127L900 0L878.5 0C857 0 814 0 771.2 0C728.3 0 685.7 0 642.8 0C600 0 557 0 514.2 0C471.3 0 428.7 0 385.8 0C343 0 300 0 257.2 0C214.3 0 171.7 0 128.8 0C86 0 43 0 21.5 0L0 0Z" fill="#e25657"></path><path d="M0 72L21.5 71.8C43 71.7 86 71.3 128.8 70.7C171.7 70 214.3 69 257.2 69.2C300 69.3 343 70.7 385.8 70.5C428.7 70.3 471.3 68.7 514.2 65.7C557 62.7 600 58.3 642.8 55.8C685.7 53.3 728.3 52.7 771.2 51.7C814 50.7 857 49.3 878.5 48.7L900 48L900 0L878.5 0C857 0 814 0 771.2 0C728.3 0 685.7 0 642.8 0C600 0 557 0 514.2 0C471.3 0 428.7 0 385.8 0C343 0 300 0 257.2 0C214.3 0 171.7 0 128.8 0C86 0 43 0 21.5 0L0 0Z" fill="#d86257"></path></svg>